# xmcd
#
# Track frame offsets:
#	150
#	21941
#	42906
#	60094
#	89229
#	108926
#	124479
#	142591
#	165909
#	183276
#	204281
#
# Disc length: 2957 seconds
#
# Revision: 0
# Processed by: cddbd v1.5PL3 Copyright (c) Steve Scherf et al.
# Submitted via: dBpowerAMP V4.0
#
DISCID=870b8b0b
DTITLE=Glenn Pavone - The Legendary Jackie Graham
DYEAR=1998
DGENRE=Blues
TTITLE0=Alive, Cranked, And Kickin'
TTITLE1=Something so Strong
TTITLE2=Burning Like a Low Flame
TTITLE3=Silence is a Lonely Sound
TTITLE4=Rendez-Blues
TTITLE5=Smother Me
TTITLE6=Straight-Due-Blues
TTITLE7=Blizzard of Blue
TTITLE8=I'll Answer The Call
TTITLE9=Only The Night Will Know
TTITLE10=Chump Change
EXTD=
EXTT0=
EXTT1=
EXTT2=
EXTT3=
EXTT4=
EXTT5=
EXTT6=
EXTT7=
EXTT8=
EXTT9=
EXTT10=
PLAYORDER=
